<svg width="26" height="40" viewBox="0 0 26 40" fill="none" xmlns="http://www.w3.org/2000/svg">
<path d="M19.0906 10.7906C21.0259 11.9073 22.633 13.5141 23.7501 15.4493C24.8672 17.3844 25.4549 19.5796 25.4541 21.8141V36.3592H17.8724C17.4968 37.4238 16.8002 38.3457 15.8786 38.9978C14.9571 39.6498 13.856 40 12.727 40C11.5981 40 10.497 39.6498 9.57547 38.9978C8.65392 38.3457 7.95732 37.4238 7.58168 36.3592H8.4786e-07V21.8141C-0.000814813 19.5796 0.586897 17.3844 1.704 15.4493C2.8211 13.5141 4.42818 11.9073 6.36352 10.7906C6.06478 10.254 5.83566 9.68155 5.68172 9.08701H8.4786e-07V5.45071H5.68354C6.08796 3.8903 6.9991 2.50836 8.27392 1.52182C9.54875 0.535283 11.1151 0 12.727 0C14.339 0 15.9053 0.535283 17.1802 1.52182C18.455 2.50836 19.3661 3.8903 19.7706 5.45071H25.4541V9.08701H19.7706C19.6169 9.68109 19.3891 10.2535 19.0924 10.7906H19.0906ZM12.727 23.6322C12.2448 23.6322 11.7824 23.8238 11.4414 24.1647C11.1005 24.5057 10.9089 24.9681 10.9089 25.4503V34.5411C10.9089 35.0233 11.1005 35.4858 11.4414 35.8267C11.7824 36.1677 12.2448 36.3592 12.727 36.3592C13.2092 36.3592 13.6717 36.1677 14.0127 35.8267C14.3536 35.4858 14.5452 35.0233 14.5452 34.5411V25.4503C14.5452 24.9681 14.3536 24.5057 14.0127 24.1647C13.6717 23.8238 13.2092 23.6322 12.727 23.6322ZM12.727 10.9052C13.6915 10.9052 14.6164 10.522 15.2983 9.84011C15.9802 9.15817 16.3633 8.23326 16.3633 7.26886C16.3633 6.30445 15.9802 5.37955 15.2983 4.69761C14.6164 4.01567 13.6915 3.63256 12.727 3.63256C11.7626 3.63256 10.8377 4.01567 10.1558 4.69761C9.47386 5.37955 9.09075 6.30445 9.09075 7.26886C9.09075 8.23326 9.47386 9.15817 10.1558 9.84011C10.8377 10.522 11.7626 10.9052 12.727 10.9052Z" fill="black"/>
</svg>
