<svg width="61" height="40" viewBox="0 0 61 40" fill="none" xmlns="http://www.w3.org/2000/svg">
<path d="M49.8747 32.3614C47.5903 32.3614 45.306 33.1229 43.5927 34.6458C41.3084 36.7397 37.8819 36.7397 35.7879 34.6458C32.1711 31.6 27.0313 31.6 23.4144 34.6458C21.1301 36.7397 17.894 36.7397 15.6096 34.6458C13.8964 33.1229 11.8024 32.3614 9.51807 32.3614C7.23373 32.3614 5.13976 33.1229 3.4265 34.6458C2.66506 35.5976 1.33253 36.1686 0 36.1686V39.9759C2.09397 39.7855 4.18795 39.0241 5.9012 37.6915C6.85301 36.7397 8.18554 36.1686 9.51807 36.1686C10.8506 36.1686 12.3735 36.7397 13.3253 37.6915C16.9422 40.7373 22.2723 40.7373 25.8891 37.6915C27.0313 36.7397 28.3638 36.1686 29.8867 36.1686C31.4096 36.1686 32.7421 36.7397 33.8843 37.6915C37.5012 40.7373 42.8313 40.7373 46.2578 37.6915C47.4 36.7397 48.7325 36.1686 50.2554 36.1686C51.7783 36.1686 53.3012 36.7397 54.253 37.6915C55.9662 39.2144 58.4409 40.1662 60.7253 39.9759V36.1686C59.2024 36.1686 57.6795 35.5976 56.5373 34.6458C54.6337 33.1229 52.3494 32.3614 49.8747 32.3614Z" fill="black"/>
<path d="M7.23369 28.9349V22.653H56.918L50.2553 28.5542H50.6361C52.159 28.5542 53.6819 28.9349 54.824 29.506L59.5831 25.3181L59.7734 24.9373C61.1059 23.2241 60.7252 20.9397 59.012 19.6072C58.4409 19.0361 57.4891 18.8458 56.7276 18.8458H48.9228L38.6433 5.52048H28.1734C24.9373 5.52048 22.4626 7.99517 22.4626 11.2313H18.6554V0H7.61441V11.8024C5.33007 12.5638 3.61682 14.6578 3.61682 17.1325V30.8385H3.80718C4.75899 29.8867 5.90116 29.3156 7.23369 28.9349ZM30.2674 11.4217H38.2626L40.9276 15.2289H30.077V11.4217H30.2674ZM11.2313 3.80723H15.0385V11.4217H11.2313V3.80723Z" fill="black"/>
</svg>
