<svg width="38" height="40" viewBox="0 0 38 40" fill="none" xmlns="http://www.w3.org/2000/svg">
<path d="M24 13.3333V0H0V40H10.6667V32H13.3333V40H37.3333V13.3333H24ZM6.66667 34.6667H4V32H6.66667V34.6667ZM6.66667 28H4V25.3333H6.66667V28ZM6.66667 21.3333H4V18.6667H6.66667V21.3333ZM6.66667 14.6667H4V12H6.66667V14.6667ZM6.66667 8H4V5.33333H6.66667V8ZM17.3333 5.33333H20V8H17.3333V5.33333ZM13.3333 28H10.6667V25.3333H13.3333V28ZM13.3333 21.3333H10.6667V18.6667H13.3333V21.3333ZM13.3333 14.6667H10.6667V12H13.3333V14.6667ZM13.3333 8H10.6667V5.33333H13.3333V8ZM20 34.6667H17.3333V32H20V34.6667ZM20 28H17.3333V25.3333H20V28ZM20 21.3333H17.3333V18.6667H20V21.3333ZM20 14.6667H17.3333V12H20V14.6667ZM34.6667 37.3333H24V34.6667H26.6667V32H24V28H26.6667V25.3333H24V21.3333H26.6667V18.6667H24V16H34.6667V37.3333Z" fill="black"/>
<path d="M29.3334 32H32V34.6667H29.3334V32ZM29.3334 25.3333H32V28H29.3334V25.3333ZM29.3334 18.6667H32V21.3333H29.3334V18.6667Z" fill="black"/>
</svg>
