<svg width="48" height="40" viewBox="0 0 48 40" fill="none" xmlns="http://www.w3.org/2000/svg">
<path d="M47.8711 14.7239L46.6036 12.5097C46.5466 12.4121 46.4533 12.341 46.3441 12.3119C46.2348 12.2829 46.1186 12.2982 46.0206 12.3546L43.309 13.9377L39.1213 2.37465C38.9002 1.68469 38.4655 1.08284 37.8801 0.656013C37.2946 0.229183 36.5887 -0.00054376 35.8642 9.66503e-07H12.69C10.8341 9.66503e-07 9.18681 1.19802 8.61454 2.96831L4.62471 13.943L1.90777 12.3599C1.80981 12.3036 1.69353 12.2882 1.5843 12.3173C1.47508 12.3463 1.38178 12.4174 1.3248 12.515L0.0572529 14.7239C-0.0604098 14.9271 0.00911825 15.1838 0.212354 15.3015L3.44273 17.1841L2.66723 19.3234C2.60305 19.4946 2.57096 19.6764 2.57096 19.8583V38.4811C2.57096 39.3208 3.20206 40 3.97756 40H7.59302C8.25086 40 8.82313 39.5026 8.96218 38.8073L9.374 36.791H38.5544L38.9662 38.8073C39.1106 39.5026 39.6775 40 40.3354 40H43.9508C44.7263 40 45.3574 39.3208 45.3574 38.4811V19.8583C45.3574 19.6764 45.3253 19.4946 45.2611 19.3234L44.4856 17.1841L47.7107 15.3015C47.8078 15.2455 47.879 15.1535 47.909 15.0455C47.939 14.9375 47.9254 14.822 47.8711 14.7239V14.7239ZM10.7004 25.827C9.51841 25.827 8.56106 24.8696 8.56106 23.6877C8.56106 22.5057 9.51841 21.5483 10.7004 21.5483C11.8824 21.5483 12.8397 22.5057 12.8397 23.6877C12.8397 24.8696 11.8824 25.827 10.7004 25.827ZM31.4518 29.8382C31.4518 30.0735 31.2593 30.2661 31.024 30.2661H16.9044C16.6691 30.2661 16.4766 30.0735 16.4766 29.8382V25.3456C16.4766 25.1103 16.6691 24.9178 16.9044 24.9178H19.0437C19.2791 24.9178 19.4716 25.1103 19.4716 25.3456V27.271H28.4568V25.3456C28.4568 25.1103 28.6493 24.9178 28.8846 24.9178H31.024C31.2593 24.9178 31.4518 25.1103 31.4518 25.3456V29.8382ZM37.228 25.827C36.046 25.827 35.0887 24.8696 35.0887 23.6877C35.0887 22.5057 36.046 21.5483 37.228 21.5483C38.41 21.5483 39.3673 22.5057 39.3673 23.6877C39.3673 24.8696 38.41 25.827 37.228 25.827ZM8.34713 14.9699L12.2353 4.27865L12.2621 4.20912L12.2835 4.13959C12.3423 3.9631 12.5028 3.84543 12.69 3.84543H35.5593L39.5919 14.9699H8.34713Z" fill="black"/>
</svg>
