<svg width="74" height="40" viewBox="0 0 74 40" fill="none" xmlns="http://www.w3.org/2000/svg">
<path d="M50 0L60 13.3333H66.6667C70.3667 13.3333 73.3333 16.3 73.3333 20V30H66.6667C66.6667 32.6522 65.6131 35.1957 63.7377 37.0711C61.8624 38.9464 59.3188 40 56.6667 40C54.0145 40 51.471 38.9464 49.5956 37.0711C47.7202 35.1957 46.6667 32.6522 46.6667 30H26.6667C26.6667 32.6522 25.6131 35.1957 23.7377 37.0711C21.8624 38.9464 19.3188 40 16.6667 40C14.0145 40 11.471 38.9464 9.5956 37.0711C7.72024 35.1957 6.66667 32.6522 6.66667 30H0V20C0 16.3 2.96667 13.3333 6.66667 13.3333L16.6667 0H50ZM31.6667 5H19.1667L12.8667 13.3333H31.6667V5ZM36.6667 5V13.3333H53.8L47.5 5H36.6667ZM16.6667 25C15.3406 25 14.0688 25.5268 13.1311 26.4645C12.1935 27.4021 11.6667 28.6739 11.6667 30C11.6667 31.3261 12.1935 32.5978 13.1311 33.5355C14.0688 34.4732 15.3406 35 16.6667 35C17.9927 35 19.2645 34.4732 20.2022 33.5355C21.1399 32.5978 21.6667 31.3261 21.6667 30C21.6667 28.6739 21.1399 27.4021 20.2022 26.4645C19.2645 25.5268 17.9927 25 16.6667 25ZM56.6667 25C55.3406 25 54.0688 25.5268 53.1311 26.4645C52.1935 27.4021 51.6667 28.6739 51.6667 30C51.6667 31.3261 52.1935 32.5978 53.1311 33.5355C54.0688 34.4732 55.3406 35 56.6667 35C57.9928 35 59.2645 34.4732 60.2022 33.5355C61.1399 32.5978 61.6667 31.3261 61.6667 30C61.6667 28.6739 61.1399 27.4021 60.2022 26.4645C59.2645 25.5268 57.9928 25 56.6667 25Z" fill="white"/>
</svg>
