<svg width="40" height="48" viewBox="0 0 40 48" fill="none" xmlns="http://www.w3.org/2000/svg">
<path d="M12.3045 41.8477H27.07V46.7695H12.3045C5.51243 46.7695 0 41.2571 0 34.465V12.3168H4.92181V34.465C4.92181 38.5501 8.21943 41.8477 12.3045 41.8477ZM15.799 8.404C17.7185 6.48449 17.7185 3.35914 15.799 1.43963C13.8795 -0.479877 10.7542 -0.479877 8.83466 1.43963C6.91515 3.35914 6.91515 6.48449 8.83466 8.404C10.7542 10.3481 13.8549 10.3481 15.799 8.404ZM18.4568 17.2387C18.4568 14.5317 16.242 12.3168 13.535 12.3168H12.3045C9.59754 12.3168 7.38272 14.5317 7.38272 17.2387V32.0041C7.38272 36.0892 10.6803 39.3868 14.7654 39.3868H27.2422L35.8554 48L39.3745 44.4809L26.8977 32.0041H18.4568V17.2387Z" fill="black"/>
</svg>
