<svg width="58" height="40" viewBox="0 0 58 40" fill="none" xmlns="http://www.w3.org/2000/svg">
<path fill-rule="evenodd" clip-rule="evenodd" d="M47.8571 35.7143C46.531 35.7143 45.2593 35.1875 44.3216 34.2498C43.3839 33.3122 42.8571 32.0404 42.8571 30.7143C42.8571 29.3882 43.3839 28.1165 44.3216 27.1788C45.2593 26.2411 46.531 25.7143 47.8571 25.7143C49.1832 25.7143 50.455 26.2411 51.3927 27.1788C52.3303 28.1165 52.8571 29.3882 52.8571 30.7143C52.8571 32.0404 52.3303 33.3122 51.3927 34.2498C50.455 35.1875 49.1832 35.7143 47.8571 35.7143ZM47.8571 40C45.3944 40 43.0325 39.0217 41.2911 37.2803C39.5497 35.5389 38.5714 33.177 38.5714 30.7143C38.5714 28.2516 39.5497 25.8897 41.2911 24.1483C43.0325 22.4069 45.3944 21.4286 47.8571 21.4286C50.3199 21.4286 52.6817 22.4069 54.4231 24.1483C56.1645 25.8897 57.1428 28.2516 57.1428 30.7143C57.1428 33.177 56.1645 35.5389 54.4231 37.2803C52.6817 39.0217 50.3199 40 47.8571 40V40Z" fill="white"/>
<path fill-rule="evenodd" clip-rule="evenodd" d="M35.5814 0.828571C35.467 0.581262 35.2842 0.371848 35.0546 0.225037C34.825 0.0782259 34.5582 0.000142841 34.2857 0H27.1429V2.85714H33.3729L46.5614 31.3143C46.7277 31.6462 47.0167 31.9003 47.3672 32.0229C47.7176 32.1454 48.102 32.1266 48.4389 31.9706C48.7758 31.8146 49.0387 31.5336 49.172 31.1871C49.3053 30.8406 49.2984 30.4558 49.1529 30.1143L35.5814 0.828571V0.828571ZM9.28571 35.7143C7.95963 35.7143 6.68786 35.1875 5.75018 34.2498C4.8125 33.3121 4.28571 32.0404 4.28571 30.7143C4.28571 29.3882 4.8125 28.1164 5.75018 27.1788C6.68786 26.2411 7.95963 25.7143 9.28571 25.7143C10.6118 25.7143 11.8836 26.2411 12.8212 27.1788C13.7589 28.1164 14.2857 29.3882 14.2857 30.7143C14.2857 32.0404 13.7589 33.3121 12.8212 34.2498C11.8836 35.1875 10.6118 35.7143 9.28571 35.7143V35.7143ZM9.28571 40C6.82299 40 4.46113 39.0217 2.71972 37.2803C0.978313 35.5389 0 33.177 0 30.7143C0 28.2516 0.978313 25.8897 2.71972 24.1483C4.46113 22.4069 6.82299 21.4286 9.28571 21.4286C11.7484 21.4286 14.1103 22.4069 15.8517 24.1483C17.5931 25.8897 18.5714 28.2516 18.5714 30.7143C18.5714 33.177 17.5931 35.5389 15.8517 37.2803C14.1103 39.0217 11.7484 40 9.28571 40V40Z" fill="white"/>
<path fill-rule="evenodd" clip-rule="evenodd" d="M25 30.7143C25 31.0932 24.8495 31.4566 24.5816 31.7245C24.3137 31.9924 23.9503 32.1429 23.5715 32.1429H9.28575C8.90687 32.1429 8.54351 31.9924 8.2756 31.7245C8.00769 31.4566 7.85718 31.0932 7.85718 30.7143C7.85718 30.3355 8.00769 29.9721 8.2756 29.7042C8.54351 29.4363 8.90687 29.2858 9.28575 29.2858H23.5715C23.9503 29.2858 24.3137 29.4363 24.5816 29.7042C24.8495 29.9721 25 30.3355 25 30.7143Z" fill="white"/>
<path d="M34.3614 19.8485L35.79 16.9914C35.9882 16.5948 36.0913 16.1576 36.0913 15.7143C36.0913 15.2709 35.9882 14.8337 35.79 14.4371L34.3614 11.58C34.1241 11.105 33.7591 10.7056 33.3074 10.4265C32.8557 10.1474 32.3352 9.99972 31.8043 9.99997H27.1186C25.8734 10.0001 24.6366 10.2038 23.4571 10.6028L18.9643 12.1214C18.7531 12.1928 18.5615 12.3126 18.4049 12.4713C18.2482 12.63 18.131 12.8232 18.0624 13.0353C17.9938 13.2475 17.9758 13.4727 18.0099 13.6931C18.0439 13.9134 18.1291 14.1227 18.2586 14.3043L22.9057 20.8285C23.0379 21.0141 23.2125 21.1655 23.415 21.2698C23.6176 21.3742 23.8422 21.4286 24.07 21.4285H31.8057C32.3364 21.4285 32.8566 21.2807 33.308 21.0016C33.7594 20.7225 34.1242 20.3233 34.3614 19.8485V19.8485ZM1.42857 12.8571H12.9943C13.2111 12.8569 13.4252 12.906 13.6203 13.0008C13.8153 13.0956 13.9862 13.2336 14.12 13.4043L18.2371 18.6614C18.3242 18.7721 18.3767 18.9061 18.3878 19.0466C18.3989 19.187 18.3683 19.3276 18.2998 19.4506C18.2312 19.5737 18.1278 19.6738 18.0025 19.7382C17.8772 19.8026 17.7357 19.8286 17.5957 19.8128L1.27143 17.9985C0.921874 17.9599 0.598874 17.7936 0.364277 17.5316C0.129681 17.2696 -2.40566e-05 16.9302 3.34669e-09 16.5785V14.2857C3.34669e-09 13.9068 0.15051 13.5434 0.418419 13.2755C0.686328 13.0076 1.04969 12.8571 1.42857 12.8571ZM34.2857 24.2857H25.7143C24.9565 24.2857 24.2298 24.5867 23.694 25.1225C23.1582 25.6583 22.8571 26.3851 22.8571 27.1428V30C22.8571 30.7577 23.1582 31.4845 23.694 32.0203C24.2298 32.5561 24.9565 32.8571 25.7143 32.8571H31.4286C32.1863 32.8571 32.9131 32.5561 33.4489 32.0203C33.9847 31.4845 34.2857 30.7577 34.2857 30V24.2857ZM41.87 7.14282H47.4843C47.5992 7.14269 47.7124 7.17028 47.8144 7.22326C47.9164 7.27623 48.004 7.35302 48.07 7.44711L52.07 13.1614C52.1451 13.2685 52.1893 13.3941 52.1979 13.5246C52.2064 13.6551 52.179 13.7854 52.1186 13.9014C52.0582 14.0174 51.9671 14.1146 51.8552 14.1823C51.7434 14.2501 51.6151 14.2858 51.4843 14.2857H44.7271C44.5946 14.2857 44.4647 14.2488 44.3519 14.1792C44.2391 14.1095 44.1479 14.0099 44.0886 13.8914L41.2314 8.17711C41.1769 8.06821 41.151 7.94717 41.1564 7.82548C41.1618 7.70379 41.1983 7.58551 41.2622 7.48186C41.3262 7.37822 41.4157 7.29266 41.522 7.23332C41.6284 7.17398 41.7482 7.14283 41.87 7.14282Z" fill="white"/>
</svg>
